<?xml version="1.0" encoding="utf-8"?>
<!-- Generator: Adobe Illustrator 25.4.1, SVG Export Plug-In . SVG Version: 6.00 Build 0)  -->
<svg version="1.1" id="Capa_1" xmlns="http://www.w3.org/2000/svg" xmlns:xlink="http://www.w3.org/1999/xlink" x="0px" y="0px"
	 viewBox="0 0 1366 768" style="enable-background:new 0 0 1366 768;" xml:space="preserve">
<style type="text/css">
	.st0{font-family:'DMSerifText-Regular';}
	.st1{font-size:118.8867px;}
	.st2{font-family:'TrajanPro-Regular';}
	.st3{font-size:350px;}
</style>
<text transform="matrix(0.836 0 0 1 520.3535 602.7324)" class="st0 st1">inmuebles</text>
<text transform="matrix(1 0 0 1 348.2288 492.3254)" class="st2 st3">JDF</text>
<path d="M350.25,195.71c0,0-7.33,13.61,3.45,21.78s19.84,4.67,19.84,4.67s10.35-6.64,15.53-12.85s23.29-22.54,51.33-32.65
	c28.04-10.11,45.29-17.11,102.66-22.55c0,0,28.04-4.67,95.76,4.67s127.25,21.39,163.92,22.94c36.67,1.56,95.33,8.36,121.21,3.31
	c0,0,63.84-7,72.04-17.69c0,0-16.82,8.17-53.92,11.86c-37.1,3.69-95.98-2.92-95.98-2.92s-51.33-6.22-62.12-8.94
	c-10.78-2.72-71.82-12.44-77.21-14.39c-5.39-1.94-44-8.17-82.82-15.36c-38.82-7.19-86.27-7.39-86.27-7.39s-22.65-2.53-85.41,10.69
	S350.25,195.71,350.25,195.71z"/>
<path d="M728.09,144.08c0,0,74.39,17.63,99.73,16.74c25.34-0.89,64.51-0.53,92.72-7.12c28.21-6.59,58.94-13,61.46-29.03
	c0,0-1.26-8.01-10.6-7.66c0,0-6.47-0.18-15.81,7.12c0,0-15.63,10.71-42.41,14.79s-19.23,6.94-77.81,6.94
	S728.09,144.08,728.09,144.08z"/>
<polygon points="698.29,12.85 783.71,122.79 949.24,119.26 864.18,8.62 "/>
<polygon points="622.94,123 641.76,123 702.94,33.59 693.06,20.88 "/>
</svg>
